<?xml version="1.0" standalone="no"?>
<!DOCTYPE svg PUBLIC "-//W3C//DTD SVG 20010904//EN"
 "http://www.w3.org/TR/2001/REC-SVG-20010904/DTD/svg10.dtd">
<svg version="1.0" xmlns="http://www.w3.org/2000/svg"
 width="290.000000pt" height="290.000000pt" viewBox="0 0 290.000000 290.000000"
 preserveAspectRatio="xMidYMid meet">
<metadata>
Created by potrace 1.14, written by Peter Selinger 2001-2017
</metadata>
<g transform="translate(0.000000,290.000000) scale(0.100000,-0.100000)"
fill="#000000" stroke="none">
<path d="M1600 2666 c-34 -18 -107 -34 -215 -46 -199 -23 -272 -51 -374 -146
-73 -68 -117 -151 -137 -263 -15 -88 -18 -288 -5 -324 6 -16 6 -50 -1 -94 -5
-37 -11 -129 -12 -203 -1 -112 2 -143 17 -176 29 -63 96 -93 131 -58 21 20 21
68 0 85 -41 34 -75 149 -94 324 -8 81 -8 116 4 185 30 167 63 238 162 343 l71
75 291 3 291 4 94 -90 c108 -103 128 -142 145 -285 6 -47 15 -98 21 -113 8
-20 8 -57 0 -125 -19 -173 -52 -287 -93 -321 -34 -28 -7 -101 37 -101 98 0
134 138 103 401 -10 94 -14 177 -10 265 13 265 -31 391 -170 499 -69 53 -72
58 -56 100 13 34 -4 41 -54 20 -35 -15 -37 -15 -36 2 4 32 1 34 -36 18 -20 -8
-38 -15 -39 -15 -1 0 0 11 3 25 5 28 -2 30 -38 11z"/>
<path d="M1097 1955 c-43 -15 -87 -51 -87 -72 0 -16 -5 -16 55 3 28 8 95 18
149 21 98 6 99 6 77 24 -47 38 -128 48 -194 24z"/>
<path d="M1666 1955 c-21 -7 -45 -20 -53 -28 -12 -12 -1 -15 84 -20 54 -3 121
-13 148 -21 28 -9 51 -16 53 -16 1 0 2 6 2 14 0 21 -55 64 -98 76 -49 13 -89
12 -136 -5z"/>
<path d="M1150 1850 c-11 -11 -20 -29 -20 -40 0 -11 9 -29 20 -40 11 -11 29
-20 40 -20 11 0 29 9 40 20 11 11 20 29 20 40 0 11 -9 29 -20 40 -11 11 -29
20 -40 20 -11 0 -29 -9 -40 -20z"/>
<path d="M1670 1850 c-11 -11 -20 -29 -20 -40 0 -11 9 -29 20 -40 11 -11 29
-20 40 -20 11 0 29 9 40 20 11 11 20 29 20 40 0 11 -9 29 -20 40 -11 11 -29
20 -40 20 -11 0 -29 -9 -40 -20z"/>
<path d="M1313 1354 c-25 -65 133 -121 217 -77 43 22 70 67 52 85 -10 10 -18
5 -41 -22 -27 -33 -32 -35 -91 -35 -58 0 -64 3 -89 33 -31 36 -39 39 -48 16z"/>
<path d="M1114 1005 c-125 -27 -208 -90 -220 -165 -5 -31 -12 -41 -36 -51 -53
-22 -142 -85 -196 -138 -58 -58 -122 -147 -122 -171 0 -20 115 -132 204 -199
61 -47 256 -149 314 -166 l22 -6 0 226 c0 212 1 227 18 220 9 -4 25 -10 34
-12 16 -5 18 -27 20 -232 l3 -226 60 -12 c100 -21 272 -27 381 -13 259 32 509
154 697 338 37 37 67 73 67 82 0 23 -61 108 -121 169 -54 55 -142 117 -197
140 -24 10 -31 20 -36 52 -13 83 -120 152 -267 174 l-47 7 -4 -129 c-3 -106
-7 -135 -25 -168 -45 -86 -117 -129 -213 -129 -73 0 -126 22 -171 71 -54 57
-63 89 -67 226 -5 144 4 134 -98 112z m706 -649 c0 -174 -2 -205 -16 -217 -11
-9 -20 -10 -32 -2 -15 9 -17 36 -20 201 l-2 191 27 15 c16 8 31 15 36 16 4 0
7 -92 7 -204z"/>
</g>
</svg>
